# xmcd CD database file
#
# Track frame offsets:
#	150
#	9762
#	17469
#	25265
#	33337
#	38761
#	48315
#	57788
#	67487
#	76926
#	86533
#	96250
#	103908
#	111390
#	119652
#	125094
#	126395
#	137319
#	144352
#	158474
#	183258
#	184375
#	196701
#	209247
#	217327
#	223778
#	230357
#	238210
#	240602
#	242139
#
# Disc length: 3254 seconds
#
# Revision: 0
# Processed by: cddbd v1.5.1PL0 Copyright (c) Steve Scherf et al.
# Submitted via: CDex 1.50Beta7
#
DISCID=b70cb41e
DTITLE=David Barett - Scales, Patterns and Bending Exercises #2-disc 2
DYEAR=2001
DGENRE=Blues
TTITLE0=C Natural Minor Scale
TTITLE1=C Major Pentatonic Scale
TTITLE2=C Minor Scale
TTITLE3=C Blues Scale
TTITLE4=C Whole-Tone Scale
TTITLE5=C Whole-Tone Scale
TTITLE6=C Dorian Scale
TTITLE7=C Phrygian Scale
TTITLE8=C Lydian Scale
TTITLE9=C Mixolydian Scale
TTITLE10=C Harmomic Minor Scale
TTITLE11=C Major Pentatonic Scale
TTITLE12=C Major Pentatonic Scale
TTITLE13=C Blues Scale
TTITLE14=C Whole-Tone Scale
TTITLE15=Secton 5-Exercise
TTITLE16=Exercise 7.1
TTITLE17=Section 6
TTITLE18=Chord Structure Exercise 8.1
TTITLE19=Major and Minor 3rds
TTITLE20=Practice
TTITLE21=C Arpeggio Exercise 8.22
TTITLE22=C Arpeggio Exercise 8.33
TTITLE23=C Dominant Arpeggio Exercise 8.44
TTITLE24=D Arpeggio Exercise 8.50
TTITLE25=C Arpeggio Exercise 8.55
TTITLE26=Application
TTITLE27=Exercise 8.60
TTITLE28=Exercise 8.61
TTITLE29=Ending Music
EXTD=YEAR: 2001
EXTT0=
EXTT1=
EXTT2=
EXTT3=
EXTT4=
EXTT5=
EXTT6=
EXTT7=
EXTT8=
EXTT9=
EXTT10=
EXTT11=
EXTT12=
EXTT13=
EXTT14=
EXTT15=
EXTT16=
EXTT17=
EXTT18=
EXTT19=
EXTT20=
EXTT21=
EXTT22=
EXTT23=
EXTT24=
EXTT25=
EXTT26=
EXTT27=
EXTT28=
EXTT29=
PLAYORDER=
